


<svg id="svg" version="1.1" width="1980" height="416" viewBox="0 0 1980 416" xmlns="http://www.w3.org/2000/svg"><path d="M1266.308 4.507 C 1259.686 7.841,1250.676 17.453,1242.379 30.035 C 1237.051 38.116,1235.243 40.086,1231.947 41.405 C 1229.754 42.282,1227.122 43.000,1226.099 43.000 C 1223.475 43.000,1205.878 49.463,1197.276 53.587 C 1166.570 68.307,1141.121 94.760,1129.401 124.139 C 1126.599 131.163,1122.014 144.909,1120.038 152.206 C 1118.624 157.431,1119.590 157.039,1104.500 158.516 C 1096.528 159.297,1082.396 162.782,1077.845 165.090 C 1073.183 167.455,1070.000 171.497,1070.000 175.053 C 1070.000 177.205,1069.149 178.345,1066.250 180.075 C 1059.583 184.055,1056.000 188.070,1056.000 191.561 C 1056.000 195.232,1058.944 199.402,1063.024 201.513 C 1066.596 203.359,1082.028 205.553,1102.066 207.062 C 1110.555 207.701,1118.031 208.372,1118.680 208.554 C 1119.329 208.735,1120.151 211.047,1120.506 213.692 C 1122.488 228.449,1135.308 257.252,1146.014 271.000 L 1148.740 274.500 1148.033 286.500 C 1147.555 294.598,1146.781 299.549,1145.650 301.725 C 1144.729 303.499,1143.694 307.634,1143.351 310.916 C 1142.756 316.609,1142.867 317.021,1145.787 319.941 C 1152.199 326.353,1159.410 322.499,1168.000 308.071 C 1169.375 305.761,1171.235 302.903,1172.134 301.719 L 1173.769 299.568 1177.634 302.130 C 1189.235 309.820,1202.403 316.618,1214.000 320.903 C 1233.565 328.132,1276.362 328.429,1296.080 321.472 C 1298.408 320.651,1300.389 320.096,1300.483 320.239 C 1300.577 320.383,1301.656 323.650,1302.881 327.500 C 1304.106 331.350,1307.253 338.325,1309.874 343.000 C 1312.495 347.675,1315.698 354.200,1316.990 357.500 C 1318.283 360.800,1320.106 364.625,1321.040 366.000 C 1324.927 371.720,1327.106 377.436,1328.003 384.261 C 1329.421 395.058,1330.843 399.043,1334.630 402.830 C 1337.644 405.844,1338.492 406.182,1341.723 405.658 C 1343.741 405.330,1346.542 403.910,1347.946 402.502 L 1350.500 399.941 1350.459 381.721 C 1350.417 363.268,1348.874 347.938,1343.491 312.519 L 1341.215 297.538 1347.640 291.650 C 1364.111 276.558,1378.252 251.972,1383.515 229.279 C 1386.187 217.758,1384.828 209.032,1380.130 207.541 C 1378.306 206.962,1377.007 203.266,1376.994 198.625 C 1376.984 194.662,1374.933 189.074,1372.373 186.031 C 1370.970 184.364,1370.347 183.000,1370.989 183.000 C 1373.530 183.000,1394.941 178.940,1402.169 177.088 C 1406.387 176.008,1411.657 174.195,1413.879 173.062 C 1416.102 171.928,1418.867 171.000,1420.025 171.000 C 1422.757 171.000,1431.665 167.223,1435.500 164.438 C 1438.420 162.318,1445.742 160.275,1459.000 157.881 C 1474.671 155.050,1481.222 146.743,1474.073 138.766 L 1471.147 135.500 1457.823 135.592 C 1440.816 135.710,1321.721 143.477,1319.872 144.590 C 1318.968 145.133,1318.005 139.590,1317.967 133.625 C 1317.948 130.806,1316.916 119.612,1315.673 108.750 C 1314.430 97.888,1313.554 89.000,1313.727 89.000 C 1313.900 89.000,1317.969 90.895,1322.771 93.212 C 1332.056 97.691,1341.454 103.308,1342.502 105.003 C 1343.477 106.581,1350.666 110.000,1353.010 110.000 C 1358.200 110.000,1364.000 104.305,1364.000 99.209 C 1364.000 98.170,1362.587 94.492,1360.860 91.037 C 1355.391 80.092,1337.243 63.703,1320.000 54.137 C 1315.875 51.849,1311.778 49.418,1310.896 48.735 C 1308.822 47.129,1305.512 40.614,1304.093 35.347 C 1300.946 23.660,1295.666 17.000,1289.546 17.000 C 1285.892 17.000,1284.599 15.853,1283.617 11.742 C 1282.684 7.836,1278.033 3.093,1274.500 2.444 C 1272.417 2.062,1269.913 2.693,1266.308 4.507 M1274.393 13.582 C 1274.727 14.452,1275.000 16.171,1275.000 17.401 C 1275.000 18.632,1276.125 20.618,1277.500 21.813 C 1278.875 23.009,1280.000 24.742,1280.000 25.665 C 1280.000 27.660,1282.817 31.000,1284.500 31.000 C 1285.155 31.000,1286.505 30.100,1287.500 29.000 C 1288.495 27.900,1289.669 27.000,1290.108 27.000 C 1291.100 27.000,1294.601 34.804,1296.090 40.335 C 1298.265 48.413,1301.761 53.786,1307.242 57.477 C 1310.119 59.415,1312.851 61.000,1313.313 61.000 C 1314.612 61.000,1328.691 70.664,1336.028 76.592 C 1345.355 84.128,1354.000 94.883,1354.000 98.950 C 1354.000 100.861,1351.118 100.041,1347.785 97.183 C 1338.674 89.371,1306.142 74.545,1303.584 77.039 C 1303.029 77.580,1303.136 81.794,1303.856 87.716 C 1305.772 103.498,1308.943 134.738,1309.656 144.857 L 1310.315 154.214 1319.907 153.557 C 1325.183 153.196,1341.425 152.027,1356.000 150.961 C 1370.575 149.895,1390.825 148.566,1401.000 148.009 C 1411.175 147.452,1429.625 146.323,1442.000 145.501 C 1468.504 143.741,1467.000 143.781,1467.000 144.839 C 1467.000 146.315,1462.312 147.884,1453.168 149.471 C 1442.865 151.258,1434.097 154.083,1430.170 156.879 C 1428.657 157.957,1424.286 159.798,1420.459 160.971 C 1416.632 162.144,1411.700 163.920,1409.500 164.917 C 1403.795 167.504,1385.402 171.431,1364.500 174.525 C 1331.992 179.337,1317.902 181.837,1316.440 183.050 C 1313.721 185.307,1314.934 197.102,1321.629 233.500 C 1324.955 251.579,1326.959 259.000,1328.515 259.000 C 1331.739 259.000,1346.805 237.686,1352.196 225.500 C 1355.451 218.141,1359.510 207.386,1360.331 203.944 C 1360.666 202.539,1361.907 199.203,1363.089 196.531 C 1364.990 192.234,1365.360 191.891,1366.293 193.559 C 1366.873 194.596,1367.553 200.046,1367.803 205.671 C 1368.156 213.609,1367.893 216.810,1366.629 219.970 C 1364.638 224.946,1364.597 226.000,1366.396 226.000 C 1367.163 226.000,1369.235 223.750,1371.000 221.000 C 1376.160 212.960,1376.889 213.997,1374.518 226.000 C 1370.285 247.419,1356.434 271.394,1339.591 286.457 L 1331.811 293.414 1332.466 299.957 C 1332.826 303.556,1333.794 310.775,1334.618 316.000 C 1339.764 348.641,1343.655 396.000,1341.190 396.000 C 1339.857 396.000,1338.404 390.933,1337.106 381.757 C 1336.186 375.245,1332.335 365.176,1329.562 362.027 C 1328.822 361.187,1326.981 357.350,1325.471 353.500 C 1323.960 349.650,1321.008 343.532,1318.909 339.905 C 1314.090 331.577,1311.468 324.874,1310.535 318.500 C 1310.132 315.750,1309.381 312.712,1308.866 311.750 C 1307.603 309.390,1302.754 309.492,1294.839 312.045 C 1279.861 316.876,1252.878 318.432,1232.987 315.613 C 1217.477 313.414,1201.984 306.868,1182.749 294.385 C 1177.337 290.873,1172.324 288.000,1171.609 288.000 C 1169.847 288.000,1168.295 289.968,1161.690 300.577 C 1153.398 313.898,1148.916 317.129,1154.168 306.000 C 1155.732 302.686,1156.393 298.996,1156.677 292.000 C 1156.890 286.775,1157.571 280.812,1158.192 278.749 C 1159.560 274.202,1158.776 272.157,1152.577 264.101 C 1142.616 251.155,1132.095 226.601,1128.979 209.026 C 1127.217 199.091,1127.618 199.396,1115.295 198.628 C 1099.221 197.627,1074.029 195.003,1069.685 193.877 C 1067.528 193.318,1066.040 192.380,1066.261 191.718 C 1066.475 191.075,1069.968 188.858,1074.022 186.792 C 1078.076 184.726,1082.092 182.322,1082.946 181.450 C 1084.355 180.012,1084.223 179.640,1081.533 177.471 L 1078.567 175.079 1083.033 173.107 C 1088.225 170.814,1106.058 167.004,1111.657 166.991 C 1113.771 166.987,1117.814 166.705,1120.642 166.365 L 1125.784 165.747 1127.987 158.124 C 1134.507 135.568,1137.940 126.426,1144.126 115.148 C 1161.386 83.674,1193.846 59.943,1231.388 51.353 C 1239.484 49.501,1244.012 45.606,1250.414 34.990 C 1257.278 23.607,1268.486 12.017,1272.643 12.004 C 1273.272 12.002,1274.059 12.712,1274.393 13.582 M377.000 31.613 C 369.025 33.457,356.538 35.978,349.250 37.214 L 336.000 39.462 336.000 43.149 C 336.000 49.603,336.467 50.000,344.060 50.000 C 351.956 50.000,355.325 51.223,356.890 54.657 C 359.202 59.731,360.114 53.238,338.496 185.500 C 334.451 210.250,328.820 244.762,325.983 262.193 L 320.826 293.886 324.112 298.693 C 331.812 309.955,343.465 318.144,355.877 321.016 C 363.935 322.881,383.687 321.789,392.500 318.991 C 415.742 311.613,436.925 293.437,452.799 267.249 C 465.997 245.477,472.286 221.622,472.241 193.500 C 472.214 176.875,470.343 166.605,465.498 156.500 C 459.021 142.990,450.080 136.766,436.277 136.159 C 419.664 135.428,409.910 141.149,377.119 170.856 C 372.654 174.902,369.000 177.837,369.000 177.379 C 369.000 172.561,393.412 37.146,395.614 29.750 C 396.321 27.375,394.559 27.551,377.000 31.613 M271.011 42.250 C 259.303 49.233,256.000 52.960,256.000 59.188 C 256.000 63.960,258.474 68.917,264.166 75.549 C 266.550 78.325,269.736 82.071,271.247 83.872 L 273.995 87.147 283.247 82.014 C 293.428 76.366,295.439 74.887,298.759 70.615 C 301.510 67.074,301.717 59.998,299.208 55.307 C 297.113 51.390,283.884 36.162,282.495 36.068 C 281.942 36.031,276.774 38.813,271.011 42.250 M42.061 71.097 C 41.401 74.451,41.097 77.430,41.385 77.718 C 41.673 78.007,45.417 78.596,49.704 79.028 C 62.965 80.366,66.000 83.161,66.000 94.036 C 66.000 101.766,34.918 275.080,32.036 283.420 C 26.630 299.066,19.427 304.892,5.388 304.976 L 1.275 305.000 0.612 310.641 C 0.248 313.744,0.168 316.502,0.436 316.769 C 0.704 317.037,10.503 316.702,22.211 316.025 C 49.522 314.446,95.473 314.457,139.390 316.054 C 158.437 316.746,174.253 317.081,174.536 316.797 C 174.819 316.514,175.745 312.281,176.593 307.391 C 178.544 296.139,182.293 280.052,185.614 268.678 C 187.031 263.827,188.024 259.690,187.820 259.486 C 187.228 258.895,174.658 257.008,174.221 257.446 C 174.003 257.663,172.553 261.515,170.998 266.005 C 163.792 286.816,153.493 294.083,128.640 295.892 C 118.184 296.653,86.215 295.809,73.227 294.429 L 66.954 293.762 67.493 290.631 C 67.790 288.909,70.061 274.225,72.540 258.000 C 81.765 197.623,93.323 131.521,98.971 106.839 C 104.031 84.728,107.910 80.352,124.068 78.530 L 129.636 77.902 130.686 71.701 C 131.264 68.290,131.629 65.371,131.498 65.213 C 131.367 65.055,121.189 65.308,108.880 65.775 C 96.571 66.242,80.875 66.301,74.000 65.907 C 67.125 65.512,57.396 65.147,52.380 65.095 L 43.260 65.000 42.061 71.097 M809.172 69.626 C 806.663 79.630,806.200 78.674,813.821 79.219 C 821.663 79.780,825.484 81.370,828.374 85.275 C 830.080 87.580,830.396 89.359,830.237 95.775 C 830.035 103.963,802.581 267.062,798.891 282.000 C 794.521 299.688,790.126 304.000,776.465 304.000 L 769.353 304.000 768.202 310.192 C 767.568 313.597,767.252 316.585,767.499 316.832 C 767.746 317.079,777.747 316.848,789.724 316.319 C 803.667 315.703,818.334 315.703,830.500 316.318 C 840.950 316.847,862.775 317.328,879.000 317.386 C 906.146 317.483,909.313 317.312,918.688 315.239 C 945.249 309.368,967.239 298.116,985.125 281.243 C 1007.948 259.714,1025.432 223.636,1030.071 188.500 C 1031.954 174.242,1030.774 149.780,1027.618 137.628 C 1017.711 99.490,990.665 77.143,943.736 68.320 C 934.108 66.510,901.480 65.992,853.000 66.877 C 841.725 67.083,827.470 66.915,821.322 66.502 L 810.144 65.752 809.172 69.626 M1264.275 76.000 C 1262.059 80.675,1255.915 93.433,1250.623 104.352 C 1245.330 115.270,1241.000 124.360,1241.000 124.551 C 1241.000 124.743,1238.246 130.659,1234.881 137.700 C 1228.337 151.388,1225.000 158.825,1225.000 159.720 C 1225.000 160.025,1228.713 159.989,1233.250 159.639 C 1237.787 159.290,1248.700 158.542,1257.500 157.978 C 1266.300 157.413,1274.287 156.707,1275.250 156.408 C 1277.711 155.644,1277.562 147.987,1274.606 123.408 C 1273.289 112.459,1271.662 97.200,1270.990 89.500 C 1270.319 81.800,1269.440 73.700,1269.037 71.500 L 1268.304 67.500 1264.275 76.000 M1219.500 75.305 C 1200.961 85.378,1179.270 104.746,1169.444 120.000 C 1161.254 132.716,1154.396 152.122,1155.193 160.333 C 1155.500 163.495,1155.510 163.500,1162.000 163.818 C 1171.790 164.296,1187.046 162.294,1189.967 160.146 C 1191.427 159.073,1193.607 155.304,1195.305 150.916 C 1196.884 146.837,1199.299 140.575,1200.673 137.000 C 1202.046 133.425,1204.018 128.475,1205.055 126.000 C 1206.092 123.525,1209.014 116.550,1211.547 110.500 C 1214.081 104.450,1218.594 94.054,1221.577 87.397 C 1226.736 75.882,1227.925 71.972,1226.250 72.023 C 1225.838 72.035,1222.800 73.512,1219.500 75.305 M1551.500 88.635 C 1542.396 97.141,1524.551 112.098,1514.750 119.438 C 1510.487 122.631,1507.009 125.750,1507.019 126.371 C 1507.076 129.666,1509.869 137.465,1510.910 137.232 C 1511.567 137.085,1518.225 132.869,1525.706 127.862 C 1533.186 122.856,1539.025 119.493,1538.681 120.390 C 1537.479 123.521,1532.942 149.166,1517.521 240.000 C 1508.976 290.325,1501.299 333.573,1500.460 336.106 C 1498.118 343.179,1495.485 345.046,1486.107 346.284 C 1481.693 346.867,1477.875 347.883,1477.622 348.544 C 1477.368 349.204,1476.852 351.802,1476.475 354.316 L 1475.790 358.888 1515.288 358.902 L 1554.785 358.917 1555.473 354.331 C 1555.851 351.808,1556.375 349.187,1556.636 348.506 C 1556.978 347.615,1554.780 347.067,1548.806 346.552 C 1535.010 345.363,1532.000 342.826,1532.000 332.392 C 1532.000 329.360,1534.025 313.785,1536.500 297.780 C 1538.975 281.776,1541.000 268.388,1541.000 268.028 C 1541.000 267.668,1544.713 268.630,1549.250 270.166 C 1558.996 273.464,1571.794 273.977,1581.540 271.461 C 1611.089 263.834,1638.157 233.704,1649.882 195.387 C 1654.288 180.989,1655.334 174.054,1655.295 159.500 C 1655.202 125.371,1641.190 103.000,1619.906 103.000 C 1614.181 103.000,1612.191 103.522,1606.237 106.585 C 1597.430 111.115,1584.862 121.209,1570.898 134.968 C 1564.904 140.874,1560.000 145.542,1560.000 145.342 C 1560.000 140.592,1567.312 105.385,1570.910 92.812 L 1572.823 86.124 1566.718 84.062 C 1563.359 82.928,1560.137 82.021,1559.556 82.048 C 1558.975 82.074,1555.350 85.038,1551.500 88.635 M1729.872 83.654 C 1727.002 87.113,1703.008 107.662,1691.750 116.302 C 1685.287 121.262,1680.009 125.810,1680.019 126.410 C 1680.077 129.678,1682.876 137.464,1683.910 137.232 C 1684.567 137.085,1691.225 132.869,1698.706 127.862 C 1706.186 122.856,1712.025 119.493,1711.681 120.390 C 1710.480 123.517,1705.949 149.131,1690.518 240.000 C 1681.972 290.325,1674.295 333.573,1673.457 336.106 C 1671.120 343.177,1668.486 345.045,1659.107 346.284 C 1654.693 346.867,1650.875 347.883,1650.622 348.544 C 1650.368 349.204,1649.852 351.802,1649.475 354.316 L 1648.790 358.888 1688.288 358.902 L 1727.785 358.917 1728.473 354.331 C 1728.851 351.808,1729.370 349.200,1729.625 348.534 C 1729.954 347.677,1727.240 347.020,1720.351 346.286 C 1711.289 345.321,1710.416 345.030,1707.806 342.109 C 1703.880 337.715,1704.062 332.942,1709.500 297.780 C 1711.975 281.776,1714.000 268.388,1714.000 268.028 C 1714.000 267.668,1717.713 268.630,1722.250 270.166 C 1731.996 273.464,1744.794 273.977,1754.540 271.461 C 1783.359 264.022,1809.515 235.636,1821.918 198.338 C 1826.819 183.600,1828.275 174.818,1828.275 160.000 C 1828.274 125.448,1814.345 103.000,1792.906 103.000 C 1787.181 103.000,1785.191 103.522,1779.237 106.585 C 1770.421 111.120,1757.859 121.212,1743.852 135.014 L 1732.908 145.797 1733.538 141.148 C 1734.689 132.644,1739.948 107.644,1742.866 96.799 L 1745.745 86.098 1739.679 84.049 C 1732.345 81.572,1731.624 81.543,1729.872 83.654 M917.250 84.543 C 939.346 86.197,959.125 94.969,972.337 108.975 C 988.582 126.195,995.693 153.678,993.036 188.976 C 989.604 234.597,974.460 264.957,945.809 283.654 C 921.554 299.482,887.246 304.109,843.757 297.417 L 833.014 295.764 833.537 292.132 C 833.824 290.134,835.860 275.900,838.060 260.500 C 844.038 218.661,866.698 86.969,868.172 85.494 C 868.420 85.247,874.895 84.642,882.561 84.150 C 895.945 83.291,901.351 83.353,917.250 84.543 M1204.332 103.250 C 1200.206 112.731,1192.550 131.816,1186.892 146.724 C 1184.263 153.651,1185.231 153.192,1170.790 154.378 L 1165.081 154.847 1165.665 151.674 C 1166.476 147.269,1170.771 136.393,1173.830 131.000 C 1177.696 124.182,1186.275 113.057,1191.677 107.856 C 1195.441 104.232,1207.893 93.376,1208.646 93.061 C 1208.727 93.028,1206.786 97.612,1204.332 103.250 M1266.055 131.915 C 1267.127 140.393,1267.819 147.514,1267.593 147.740 C 1267.252 148.081,1239.999 149.717,1240.000 149.396 C 1240.000 149.339,1242.443 143.939,1245.430 137.396 C 1250.355 126.604,1253.923 119.048,1260.286 105.937 L 1262.500 101.373 1263.303 108.937 C 1263.744 113.097,1264.983 123.437,1266.055 131.915 M1907.500 102.870 C 1895.057 106.451,1879.999 116.784,1872.669 126.770 C 1866.275 135.481,1863.679 142.389,1863.584 150.952 C 1863.511 157.505,1863.934 159.423,1866.794 165.500 C 1869.760 171.802,1872.364 174.744,1892.907 195.000 C 1921.565 223.257,1924.332 228.043,1918.919 240.000 C 1914.605 249.531,1905.970 255.127,1895.484 255.187 C 1886.918 255.237,1879.624 251.269,1869.053 240.811 L 1861.001 232.845 1855.514 237.532 C 1848.222 243.762,1846.000 247.524,1846.000 253.640 C 1846.000 260.124,1849.825 264.866,1858.301 268.888 C 1867.141 273.083,1874.923 274.331,1888.721 273.768 C 1907.168 273.014,1919.259 267.619,1933.042 253.993 C 1945.274 241.900,1950.268 228.943,1947.912 215.414 C 1945.877 203.732,1940.211 196.449,1918.154 177.163 C 1893.939 155.989,1887.590 145.097,1892.548 133.232 C 1895.441 126.307,1900.321 122.627,1908.680 121.065 C 1916.579 119.590,1925.379 123.582,1937.940 134.341 C 1940.932 136.903,1943.772 139.000,1944.250 139.000 C 1945.692 139.000,1956.090 128.726,1957.597 125.813 C 1962.406 116.512,1954.564 106.401,1939.540 102.534 C 1931.490 100.462,1915.274 100.632,1907.500 102.870 M1618.211 131.703 C 1623.085 136.372,1624.515 143.259,1624.396 161.500 C 1624.228 187.250,1620.202 205.714,1610.329 226.000 C 1605.543 235.835,1603.630 238.600,1597.116 245.099 C 1588.354 253.841,1582.689 256.395,1572.393 256.244 C 1565.048 256.136,1559.851 254.820,1550.819 250.781 C 1545.051 248.202,1544.096 247.424,1544.488 245.622 C 1544.742 244.455,1547.483 226.426,1550.579 205.559 L 1556.207 167.617 1563.354 160.950 C 1582.270 143.302,1598.174 131.079,1605.500 128.561 C 1610.251 126.928,1614.262 127.919,1618.211 131.703 M1791.063 131.560 C 1795.991 136.282,1797.513 143.478,1797.396 161.500 C 1797.228 187.250,1793.202 205.714,1783.329 226.000 C 1778.543 235.835,1776.630 238.600,1770.116 245.099 C 1761.354 253.841,1755.689 256.395,1745.393 256.244 C 1738.048 256.136,1732.851 254.820,1723.819 250.781 C 1718.040 248.197,1717.097 247.427,1717.501 245.622 C 1717.762 244.455,1720.474 226.400,1723.528 205.500 L 1729.080 167.500 1732.407 164.500 C 1773.319 127.610,1781.906 122.788,1791.063 131.560 M244.989 139.821 C 239.857 142.425,210.000 163.570,210.000 164.601 C 210.000 165.462,215.029 175.000,215.483 175.000 C 215.730 175.000,218.680 173.224,222.038 171.054 C 233.156 163.868,239.342 163.583,242.054 170.131 C 244.711 176.545,241.421 196.345,230.593 239.115 C 220.012 280.910,218.594 297.738,224.641 309.740 C 228.777 317.948,233.450 321.306,241.440 321.815 C 251.281 322.442,257.012 318.901,275.723 300.637 C 292.590 284.172,291.652 286.224,286.247 277.619 L 283.810 273.739 276.655 280.779 C 264.435 292.804,258.011 295.710,254.557 290.777 C 250.944 285.619,253.089 271.057,264.097 226.021 C 273.701 186.727,275.319 178.005,275.415 165.000 C 275.505 152.782,274.658 149.189,270.288 143.249 C 266.962 138.728,263.082 136.998,256.300 137.013 C 251.948 137.022,249.124 137.723,244.989 139.821 M561.296 140.370 C 534.939 149.099,513.053 174.708,500.908 211.032 C 494.142 231.270,492.638 240.096,492.565 260.000 C 492.508 275.424,492.774 278.445,494.806 285.465 C 499.358 301.190,507.191 312.115,518.187 318.077 C 524.301 321.392,524.847 321.499,535.500 321.472 C 544.648 321.448,547.489 321.049,552.373 319.104 C 562.894 314.913,583.259 300.086,600.805 283.841 L 606.807 278.284 603.356 272.161 L 599.906 266.038 590.703 273.337 C 570.779 289.138,559.537 295.209,550.238 295.186 C 543.181 295.169,539.491 293.824,535.161 289.689 C 528.341 283.177,524.046 270.377,524.024 256.500 L 524.012 249.500 557.192 232.500 C 593.817 213.735,603.232 208.294,610.702 201.578 C 620.219 193.021,623.368 179.156,619.035 164.889 C 617.046 158.342,616.084 156.860,609.659 150.452 C 600.145 140.962,594.742 138.789,579.500 138.322 C 570.014 138.031,567.509 138.313,561.296 140.370 M669.000 141.291 C 662.125 144.766,650.466 152.356,640.500 159.845 C 637.200 162.324,634.339 164.472,634.143 164.617 C 633.790 164.878,639.907 176.000,640.403 176.000 C 640.543 176.000,644.223 173.961,648.579 171.470 C 657.595 166.313,659.952 165.520,663.566 166.427 C 667.543 167.425,669.000 172.253,669.000 184.430 C 669.000 206.269,660.646 255.638,647.937 308.905 C 646.309 315.728,645.213 321.547,645.502 321.835 C 645.924 322.258,676.999 315.346,677.642 314.687 C 677.742 314.584,678.554 309.100,679.446 302.500 C 683.714 270.927,692.904 226.756,696.507 220.500 C 700.033 214.378,715.972 193.224,722.068 186.576 C 733.987 173.577,742.788 171.695,750.924 180.405 C 752.258 181.832,753.652 183.000,754.023 183.000 C 754.395 183.000,756.896 178.387,759.581 172.750 C 764.202 163.049,764.465 162.054,764.482 154.181 L 764.500 145.861 760.289 141.931 C 756.501 138.396,755.552 138.000,750.854 138.000 C 737.566 138.000,727.637 148.688,699.161 193.649 C 696.774 197.417,695.091 199.663,695.421 198.641 C 695.751 197.618,696.469 189.293,697.017 180.141 C 698.958 147.724,695.265 138.009,681.000 138.007 C 676.768 138.006,674.002 138.763,669.000 141.291 M578.500 159.246 C 588.059 164.291,593.412 176.526,589.994 185.515 C 588.597 189.189,578.862 199.174,571.039 204.957 C 557.723 214.800,525.000 233.280,525.000 230.957 C 525.000 230.288,526.161 224.564,527.580 218.237 C 538.090 171.379,557.933 148.390,578.500 159.246 M425.047 163.000 C 428.330 163.000,433.775 168.800,436.136 174.810 C 438.059 179.708,438.427 182.884,438.782 197.627 C 439.741 237.543,429.342 270.201,409.800 288.640 C 401.146 296.805,393.077 300.179,382.218 300.172 C 373.651 300.167,366.073 297.365,359.616 291.814 L 354.732 287.616 355.247 277.527 C 355.530 271.978,358.142 252.089,361.051 233.329 L 366.340 199.221 374.420 192.257 C 397.096 172.712,416.216 160.738,421.832 162.566 C 422.564 162.805,424.011 163.000,425.047 163.000 M1357.865 186.750 C 1355.777 189.281,1353.214 195.238,1349.801 205.498 C 1345.568 218.223,1341.396 227.508,1336.643 234.778 L 1332.539 241.056 1331.322 234.278 C 1330.653 230.550,1328.968 220.300,1327.578 211.500 C 1326.189 202.700,1324.839 194.323,1324.578 192.884 L 1324.103 190.267 1338.302 188.054 C 1346.111 186.837,1353.175 185.704,1354.000 185.537 C 1354.825 185.369,1356.357 185.180,1357.405 185.116 C 1359.105 185.012,1359.154 185.188,1357.865 186.750 M1265.000 189.511 C 1257.575 190.203,1242.214 191.565,1230.864 192.536 L 1210.229 194.303 1205.504 205.901 C 1202.905 212.281,1199.981 219.525,1199.006 222.000 C 1194.748 232.808,1187.732 249.618,1186.424 252.146 C 1184.110 256.621,1184.715 258.442,1190.250 263.660 C 1197.461 270.458,1205.784 275.927,1217.025 281.250 C 1230.567 287.662,1239.512 290.042,1252.566 290.703 C 1262.305 291.196,1264.970 290.942,1274.802 288.592 C 1288.617 285.288,1298.989 281.515,1301.108 279.022 C 1302.598 277.268,1302.445 276.043,1299.019 262.315 C 1296.985 254.167,1294.066 241.875,1292.531 235.000 C 1290.996 228.125,1288.955 219.350,1287.995 215.500 C 1287.035 211.650,1285.212 203.887,1283.944 198.250 C 1282.184 190.423,1281.268 188.030,1280.070 188.126 C 1279.206 188.195,1272.425 188.819,1265.000 189.511 M1161.643 197.028 C 1154.497 199.169,1153.503 203.249,1157.363 214.597 C 1162.441 229.526,1166.858 236.425,1169.081 232.896 C 1170.151 231.196,1180.000 200.814,1180.000 199.212 C 1180.000 198.584,1179.130 197.605,1178.066 197.035 C 1175.781 195.812,1165.714 195.808,1161.643 197.028 M1275.898 204.750 C 1276.567 207.912,1278.182 215.000,1279.488 220.500 C 1280.793 226.000,1283.048 235.675,1284.498 242.000 C 1285.949 248.325,1287.962 256.875,1288.973 261.000 C 1292.462 275.243,1292.824 273.574,1285.749 275.829 C 1282.312 276.925,1275.287 278.824,1270.138 280.050 C 1259.197 282.655,1250.405 282.363,1237.554 278.969 C 1224.962 275.642,1203.590 264.663,1201.121 260.252 C 1200.582 259.288,1199.884 258.613,1199.570 258.750 C 1199.257 258.887,1198.196 258.212,1197.213 257.250 C 1195.500 255.572,1195.565 255.173,1198.795 247.500 C 1200.647 243.100,1202.539 238.375,1203.000 237.000 C 1203.461 235.625,1205.486 230.675,1207.500 226.000 C 1209.514 221.325,1211.531 216.375,1211.981 215.000 C 1212.431 213.625,1213.735 210.432,1214.878 207.905 L 1216.956 203.311 1236.728 201.570 C 1247.603 200.612,1256.950 199.678,1257.500 199.493 C 1258.050 199.309,1262.141 199.122,1266.591 199.079 L 1274.682 199.000 1275.898 204.750 M1167.607 207.582 C 1167.273 208.452,1166.968 209.914,1166.930 210.832 C 1166.874 212.165,1166.687 212.098,1166.000 210.500 C 1164.666 207.396,1164.855 206.000,1166.607 206.000 C 1167.662 206.000,1168.005 206.544,1167.607 207.582 " stroke="none" fill="#f7c806" fill-rule="evenodd"/></svg>